<?xml version="1.0" standalone="no"?>
<!DOCTYPE svg PUBLIC "-//W3C//DTD SVG 20010904//EN"
 "http://www.w3.org/TR/2001/REC-SVG-20010904/DTD/svg10.dtd">
<svg version="1.0" xmlns="http://www.w3.org/2000/svg"
 width="225.000000pt" height="225.000000pt" viewBox="0 0 225.000000 225.000000"
 preserveAspectRatio="xMidYMid meet">
<metadata>
Created by potrace 1.11, written by Peter Selinger 2001-2013
</metadata>
<g transform="translate(0.000000,225.000000) scale(0.100000,-0.100000)"
fill="#000000" stroke="none">
<path d="M985 2243 c-16 -2 -54 -8 -82 -14 -53 -10 -53 -11 -68 -62 -8 -29
-21 -84 -30 -124 -16 -69 -18 -72 -56 -87 -22 -9 -57 -27 -79 -41 -22 -14 -44
-25 -49 -25 -5 0 -35 38 -67 85 -32 48 -62 82 -68 78 -36 -20 -146 -117 -146
-129 0 -7 15 -62 33 -123 l34 -110 -49 -75 c-27 -42 -51 -76 -54 -76 -4 0 -44
18 -91 40 -47 22 -89 40 -93 40 -9 0 -67 -134 -72 -167 -2 -17 18 -44 85 -110
l87 -88 -6 -93 c-8 -105 1 -97 -126 -107 -49 -4 -88 -10 -88 -13 0 -21 29
-183 34 -191 4 -5 60 -22 126 -38 113 -26 120 -30 132 -58 7 -16 25 -52 40
-79 20 -34 26 -52 19 -60 -8 -9 -130 -95 -159 -113 -6 -3 52 -82 90 -125 l33
-37 117 36 117 35 76 -48 c42 -27 79 -52 82 -57 2 -4 -15 -49 -38 -98 -49
-104 -54 -93 66 -140 l80 -31 87 91 86 92 95 -7 c107 -8 106 -7 107 -94 0 -25
3 -62 6 -83 l7 -38 46 6 c25 4 69 11 98 16 l52 10 16 55 c8 29 22 84 31 122
l15 67 85 44 c97 50 79 57 160 -61 l47 -67 41 29 c66 48 106 85 106 101 0 8
-14 62 -31 121 l-31 107 43 69 c24 39 49 78 54 87 10 16 19 14 105 -28 105
-50 99 -52 131 33 44 114 48 99 -52 194 l-89 85 6 95 7 94 36 6 c20 3 67 6
104 6 l69 0 -7 53 c-3 28 -11 76 -16 104 -10 53 -10 53 -62 68 -29 8 -84 21
-123 30 -69 16 -72 17 -90 58 -10 23 -29 60 -42 81 l-25 40 38 32 c21 18 60
45 87 61 26 15 48 31 48 35 0 16 -122 157 -133 153 -7 -2 -61 -18 -120 -35
l-108 -31 -83 53 c-95 60 -93 46 -30 171 40 81 45 73 -71 118 l-80 31 -85 -91
-86 -92 -99 8 -100 8 -9 103 c-8 84 -12 102 -25 101 -9 -1 -29 -4 -46 -6z
m270 -498 c301 -63 522 -351 501 -655 -3 -47 -13 -110 -22 -140 -60 -204 -231
-374 -439 -436 -82 -25 -258 -25 -340 0 -271 81 -465 335 -465 611 0 396 377
701 765 620z"/>
<path d="M971 1694 c-195 -52 -365 -224 -416 -420 -19 -75 -19 -223 0 -298 52
-200 222 -369 421 -420 34 -9 101 -16 149 -16 48 0 115 7 149 16 200 52 368
220 420 420 20 79 20 219 0 298 -51 199 -220 369 -420 421 -73 19 -231 19
-303 -1z m229 -419 c58 -30 90 -84 90 -153 0 -147 -187 -220 -286 -110 -34 36
-46 66 -46 113 0 124 131 205 242 150z"/>
</g>
</svg>
